# xmcd
#
# Track frame offsets: 
#        150
#        13454
#        31021
#        47177
#        67431
#        82476
#        103118
#        119756
#        137238
#        155767
#        173841
#        191418
#        210007
#
# Disc length: 3013 seconds
#
# Revision: 0
# Processed by: cddbd v1.5.2PL0 Copyright (c) Steve Scherf et al.
# Submitted via: ExactAudioCopy v0.99pb3
#
DISCID=c50bc30d
DTITLE=Kiarla - Les Brumes ou la nuit
DYEAR=2009
DGENRE=Chanson
TTITLE0=Coeur delie
TTITLE1=Kalajah
TTITLE2=La Nuit
TTITLE3=La Mort, laisse-moi du temps
TTITLE4=Dans tes yeux
TTITLE5=Afrique
TTITLE6=Les Jeux sont faits
TTITLE7=J'ai beaucoup voyage
TTITLE8=Difficile de faire de la poesie
TTITLE9=Tu es partie
TTITLE10=Dorian Gray
TTITLE11=68
TTITLE12=Je ne veux plus que tu pleures
EXTD=
EXTT0=
EXTT1=
EXTT2=
EXTT3=
EXTT4=
EXTT5=
EXTT6=
EXTT7=
EXTT8=
EXTT9=
EXTT10=
EXTT11=
EXTT12=
PLAYORDER=
